<mxfile host="65bd71144e" modified="2020-12-04T09:06:34.914Z" agent="5.0 (X11; Linux x86_64) AppleWebKit/537.36 (KHTML, like Gecko) Code/1.51.1 Chrome/83.0.4103.122 Electron/9.3.3 Safari/537.36" etag="C3rUl7ifvZRHOVoTkhqV" version="13.10.0" type="embed" pages="2">
    <diagram id="j1ny3Ss1Q0sh5PDAtYMi" name="flow">
        <mxGraphModel dx="1838" dy="819" grid="1" gridSize="10" guides="1" tooltips="1" connect="1" arrows="1" fold="1" page="1" pageScale="1" pageWidth="1654" pageHeight="1169" math="0" shadow="1">
            <root>
                <mxCell id="9WSpmLzHRRsmoLOSvqGu-0"/>
                <mxCell id="9WSpmLzHRRsmoLOSvqGu-1" parent="9WSpmLzHRRsmoLOSvqGu-0"/>
                <mxCell id="9WSpmLzHRRsmoLOSvqGu-28" value="" style="edgeStyle=orthogonalEdgeStyle;rounded=1;orthogonalLoop=1;jettySize=auto;html=1;fontFamily=Inter;fontSource=https%3A%2F%2Ffonts.googleapis.com%2Fcss%3Ffamily%3DInter;strokeWidth=1;endArrow=block;endFill=1;" parent="9WSpmLzHRRsmoLOSvqGu-1" source="9WSpmLzHRRsmoLOSvqGu-22" target="9WSpmLzHRRsmoLOSvqGu-26" edge="1">
                    <mxGeometry relative="1" as="geometry"/>
                </mxCell>
                <mxCell id="1" value="" style="edgeStyle=orthogonalEdgeStyle;rounded=0;orthogonalLoop=1;jettySize=auto;html=1;endArrow=block;endFill=1;" parent="9WSpmLzHRRsmoLOSvqGu-1" source="9WSpmLzHRRsmoLOSvqGu-22" target="0" edge="1">
                    <mxGeometry relative="1" as="geometry"/>
                </mxCell>
                <mxCell id="6" style="edgeStyle=orthogonalEdgeStyle;rounded=1;orthogonalLoop=1;jettySize=auto;html=1;entryX=0.5;entryY=0;entryDx=0;entryDy=0;endArrow=block;endFill=1;" parent="9WSpmLzHRRsmoLOSvqGu-1" source="9WSpmLzHRRsmoLOSvqGu-22" target="5" edge="1">
                    <mxGeometry relative="1" as="geometry">
                        <Array as="points">
                            <mxPoint x="180" y="260"/>
                            <mxPoint x="420" y="260"/>
                        </Array>
                    </mxGeometry>
                </mxCell>
                <mxCell id="9WSpmLzHRRsmoLOSvqGu-22" value="init" style="swimlane;fillColor=#6a00ff;strokeColor=#3700CC;fontColor=#ffffff;strokeWidth=2;rounded=1;shadow=0;sketch=0;glass=0;fontFamily=Inter;fontSource=https%3A%2F%2Ffonts.googleapis.com%2Fcss%3Ffamily%3DInter;swimlaneFillColor=#ffffff;" parent="9WSpmLzHRRsmoLOSvqGu-1" vertex="1">
                    <mxGeometry x="80" y="40" width="200" height="200" as="geometry"/>
                </mxCell>
                <mxCell id="2" value="init clipboard_manager" style="rounded=1;whiteSpace=wrap;html=1;fontFamily=Inter;fontSource=https%3A%2F%2Ffonts.googleapis.com%2Fcss%3Ffamily%3DInter;fillColor=#dae8fc;strokeColor=#6c8ebf;" parent="9WSpmLzHRRsmoLOSvqGu-22" vertex="1">
                    <mxGeometry x="20" y="45" width="160" height="30" as="geometry"/>
                </mxCell>
                <mxCell id="3" value="init cache_manager" style="rounded=1;whiteSpace=wrap;html=1;fontFamily=Inter;fontSource=https%3A%2F%2Ffonts.googleapis.com%2Fcss%3Ffamily%3DInter;fillColor=#dae8fc;strokeColor=#6c8ebf;" parent="9WSpmLzHRRsmoLOSvqGu-22" vertex="1">
                    <mxGeometry x="20" y="85" width="160" height="30" as="geometry"/>
                </mxCell>
                <mxCell id="ZoLEWMUwDy_6GeyxjTov-4" value="" style="edgeStyle=orthogonalEdgeStyle;rounded=1;orthogonalLoop=1;jettySize=auto;html=1;fontFamily=Inter;fontSource=https%3A%2F%2Ffonts.googleapis.com%2Fcss%3Ffamily%3DInter;strokeWidth=1;endArrow=block;endFill=1;" parent="9WSpmLzHRRsmoLOSvqGu-1" source="9WSpmLzHRRsmoLOSvqGu-26" target="ZoLEWMUwDy_6GeyxjTov-0" edge="1">
                    <mxGeometry relative="1" as="geometry"/>
                </mxCell>
                <mxCell id="9WSpmLzHRRsmoLOSvqGu-26" value="startup" style="swimlane;fillColor=#6a00ff;strokeColor=#3700CC;fontColor=#ffffff;strokeWidth=2;perimeterSpacing=0;rounded=1;fontFamily=Inter;fontSource=https%3A%2F%2Ffonts.googleapis.com%2Fcss%3Ffamily%3DInter;swimlaneFillColor=#ffffff;" parent="9WSpmLzHRRsmoLOSvqGu-1" vertex="1">
                    <mxGeometry x="520" y="40" width="200" height="200" as="geometry"/>
                </mxCell>
                <mxCell id="9WSpmLzHRRsmoLOSvqGu-13" value="Gtk.Application startup" style="rounded=1;whiteSpace=wrap;html=1;fontFamily=Inter;fontSource=https%3A%2F%2Ffonts.googleapis.com%2Fcss%3Ffamily%3DInter;fillColor=#ffe6cc;strokeColor=#d79b00;" parent="9WSpmLzHRRsmoLOSvqGu-26" vertex="1">
                    <mxGeometry x="20" y="45" width="160" height="30" as="geometry"/>
                </mxCell>
                <mxCell id="hLRt6eJ45aM8rtLhUjsM-7" value="" style="edgeStyle=orthogonalEdgeStyle;rounded=1;orthogonalLoop=1;jettySize=auto;html=1;fontFamily=Inter;fontSource=https%3A%2F%2Ffonts.googleapis.com%2Fcss%3Ffamily%3DInter;strokeWidth=1;endArrow=block;endFill=1;" parent="9WSpmLzHRRsmoLOSvqGu-1" source="ZoLEWMUwDy_6GeyxjTov-0" target="hLRt6eJ45aM8rtLhUjsM-5" edge="1">
                    <mxGeometry relative="1" as="geometry"/>
                </mxCell>
                <mxCell id="SwcRo_79waH0NxTdfLfB-39" style="edgeStyle=elbowEdgeStyle;rounded=1;orthogonalLoop=1;jettySize=auto;html=1;entryX=0.5;entryY=0;entryDx=0;entryDy=0;endArrow=block;endFill=1;strokeColor=#000000;strokeWidth=1;fontFamily=Inter;" parent="9WSpmLzHRRsmoLOSvqGu-1" source="ZoLEWMUwDy_6GeyxjTov-0" target="SwcRo_79waH0NxTdfLfB-35" edge="1">
                    <mxGeometry relative="1" as="geometry"/>
                </mxCell>
                <mxCell id="ZoLEWMUwDy_6GeyxjTov-0" value="activate" style="swimlane;fillColor=#6a00ff;strokeColor=#3700CC;fontColor=#ffffff;strokeWidth=2;perimeterSpacing=0;rounded=1;fontFamily=Inter;fontSource=https%3A%2F%2Ffonts.googleapis.com%2Fcss%3Ffamily%3DInter;swimlaneFillColor=#ffffff;" parent="9WSpmLzHRRsmoLOSvqGu-1" vertex="1">
                    <mxGeometry x="960" y="40" width="200" height="200" as="geometry"/>
                </mxCell>
                <mxCell id="9WSpmLzHRRsmoLOSvqGu-16" value="init main_window" style="rounded=1;whiteSpace=wrap;html=1;fontFamily=Inter;fontSource=https%3A%2F%2Ffonts.googleapis.com%2Fcss%3Ffamily%3DInter;fillColor=#dae8fc;strokeColor=#6c8ebf;" parent="ZoLEWMUwDy_6GeyxjTov-0" vertex="1">
                    <mxGeometry x="20" y="45" width="160" height="30" as="geometry"/>
                </mxCell>
                <mxCell id="C7c_2EIT-gh8rbHYRcQ1-89" value="init clips_view" style="rounded=1;whiteSpace=wrap;html=1;fontFamily=Inter;fontSource=https%3A%2F%2Ffonts.googleapis.com%2Fcss%3Ffamily%3DInter;fillColor=#dae8fc;strokeColor=#6c8ebf;" parent="ZoLEWMUwDy_6GeyxjTov-0" vertex="1">
                    <mxGeometry x="20" y="85" width="160" height="30" as="geometry"/>
                </mxCell>
                <mxCell id="C7c_2EIT-gh8rbHYRcQ1-90" value="init settings_view" style="rounded=1;whiteSpace=wrap;html=1;fontFamily=Inter;fontSource=https%3A%2F%2Ffonts.googleapis.com%2Fcss%3Ffamily%3DInter;fillColor=#dae8fc;strokeColor=#6c8ebf;" parent="ZoLEWMUwDy_6GeyxjTov-0" vertex="1">
                    <mxGeometry x="20" y="125" width="160" height="30" as="geometry"/>
                </mxCell>
                <mxCell id="hLRt6eJ45aM8rtLhUjsM-5" value="running" style="swimlane;fillColor=#6a00ff;strokeColor=#3700CC;fontColor=#ffffff;strokeWidth=2;perimeterSpacing=0;rounded=1;fontFamily=Inter;fontSource=https%3A%2F%2Ffonts.googleapis.com%2Fcss%3Ffamily%3DInter;swimlaneFillColor=#ffffff;" parent="9WSpmLzHRRsmoLOSvqGu-1" vertex="1">
                    <mxGeometry x="1400" y="40" width="200" height="200" as="geometry"/>
                </mxCell>
                <mxCell id="SwcRo_79waH0NxTdfLfB-34" value="signal: open-main-window" style="rounded=1;whiteSpace=wrap;html=1;fontFamily=Inter;fontSource=https%3A%2F%2Ffonts.googleapis.com%2Fcss%3Ffamily%3DInter;fillColor=#f5f5f5;strokeColor=#666666;fontColor=#333333;" parent="hLRt6eJ45aM8rtLhUjsM-5" vertex="1">
                    <mxGeometry x="20" y="45" width="160" height="30" as="geometry"/>
                </mxCell>
                <mxCell id="0" value="clipboard_manager" style="swimlane;fillColor=#6a00ff;strokeColor=#3700CC;fontColor=#ffffff;strokeWidth=2;rounded=1;shadow=0;sketch=0;glass=0;fontFamily=Inter;fontSource=https%3A%2F%2Ffonts.googleapis.com%2Fcss%3Ffamily%3DInter;swimlaneFillColor=#ffffff;startSize=23;" parent="9WSpmLzHRRsmoLOSvqGu-1" vertex="1">
                    <mxGeometry x="80" y="520" width="200" height="200" as="geometry"/>
                </mxCell>
                <mxCell id="SwcRo_79waH0NxTdfLfB-18" value="signal: owner-changed" style="rounded=1;whiteSpace=wrap;html=1;fontFamily=Inter;fontSource=https%3A%2F%2Ffonts.googleapis.com%2Fcss%3Ffamily%3DInter;fillColor=#f5f5f5;strokeColor=#666666;fontColor=#333333;" parent="0" vertex="1">
                    <mxGeometry x="20" y="40" width="160" height="30" as="geometry"/>
                </mxCell>
                <mxCell id="SwcRo_79waH0NxTdfLfB-28" value="func: clip_to_clipboard" style="rounded=1;whiteSpace=wrap;html=1;fontFamily=Inter;fontSource=https%3A%2F%2Ffonts.googleapis.com%2Fcss%3Ffamily%3DInter;fillColor=#ffe6cc;strokeColor=#d79b00;" parent="0" vertex="1">
                    <mxGeometry x="20" y="85" width="160" height="30" as="geometry"/>
                </mxCell>
                <mxCell id="5" value="cache_manager" style="swimlane;fillColor=#6a00ff;strokeColor=#3700CC;fontColor=#ffffff;strokeWidth=2;rounded=1;shadow=0;sketch=0;glass=0;fontFamily=Inter;fontSource=https%3A%2F%2Ffonts.googleapis.com%2Fcss%3Ffamily%3DInter;swimlaneFillColor=#ffffff;startSize=23;" parent="9WSpmLzHRRsmoLOSvqGu-1" vertex="1">
                    <mxGeometry x="320" y="280" width="200" height="280" as="geometry"/>
                </mxCell>
                <mxCell id="19" style="edgeStyle=orthogonalEdgeStyle;rounded=0;orthogonalLoop=1;jettySize=auto;html=1;endArrow=diamond;endFill=1;startArrow=diamond;startFill=1;dashed=1;strokeColor=#3333FF;" parent="5" source="SwcRo_79waH0NxTdfLfB-19" target="SwcRo_79waH0NxTdfLfB-33" edge="1">
                    <mxGeometry relative="1" as="geometry"/>
                </mxCell>
                <mxCell id="20" style="edgeStyle=orthogonalEdgeStyle;rounded=0;orthogonalLoop=1;jettySize=auto;html=1;entryX=0.5;entryY=0;entryDx=0;entryDy=0;endArrow=diamond;endFill=1;startArrow=diamond;startFill=1;dashed=1;strokeColor=#3333FF;" parent="5" source="SwcRo_79waH0NxTdfLfB-19" target="SwcRo_79waH0NxTdfLfB-23" edge="1">
                    <mxGeometry relative="1" as="geometry"/>
                </mxCell>
                <mxCell id="SwcRo_79waH0NxTdfLfB-19" value="func: update_cache" style="rounded=1;whiteSpace=wrap;html=1;fontFamily=Inter;fontSource=https%3A%2F%2Ffonts.googleapis.com%2Fcss%3Ffamily%3DInter;fillColor=#ffe6cc;strokeColor=#d79b00;" parent="5" vertex="1">
                    <mxGeometry x="20" y="40" width="160" height="30" as="geometry"/>
                </mxCell>
                <mxCell id="SwcRo_79waH0NxTdfLfB-23" value="clipsdb" style="shape=datastore;whiteSpace=wrap;html=1;fillColor=#fff2cc;strokeColor=#d6b656;" parent="5" vertex="1">
                    <mxGeometry x="30" y="112.39" width="60" height="60" as="geometry"/>
                </mxCell>
                <mxCell id="SwcRo_79waH0NxTdfLfB-33" value="cache_dir" style="html=1;verticalLabelPosition=bottom;align=center;labelBackgroundColor=#ffffff;verticalAlign=top;strokeWidth=1;strokeColor=#d6b656;shadow=0;dashed=0;shape=mxgraph.ios7.icons.folder;rounded=1;fillColor=#fff2cc;" parent="5" vertex="1">
                    <mxGeometry x="120" y="112.38999999999999" width="50" height="35.25" as="geometry"/>
                </mxCell>
                <mxCell id="29" value="func: search_cache" style="rounded=1;whiteSpace=wrap;html=1;fontFamily=Inter;fontSource=https%3A%2F%2Ffonts.googleapis.com%2Fcss%3Ffamily%3DInter;fillColor=#ffe6cc;strokeColor=#d79b00;" parent="5" vertex="1">
                    <mxGeometry x="20" y="230" width="160" height="30" as="geometry"/>
                </mxCell>
                <mxCell id="I3_1XdQ8ubKdgtrI8XkN-20" style="edgeStyle=orthogonalEdgeStyle;rounded=0;orthogonalLoop=1;jettySize=auto;html=1;entryX=0.5;entryY=0;entryDx=0;entryDy=0;" parent="9WSpmLzHRRsmoLOSvqGu-1" source="10" target="I3_1XdQ8ubKdgtrI8XkN-18" edge="1">
                    <mxGeometry relative="1" as="geometry"/>
                </mxCell>
                <mxCell id="10" value="clips_view" style="swimlane;fillColor=#6a00ff;strokeColor=#3700CC;fontColor=#ffffff;strokeWidth=2;perimeterSpacing=0;rounded=1;fontFamily=Inter;fontSource=https%3A%2F%2Ffonts.googleapis.com%2Fcss%3Ffamily%3DInter;swimlaneFillColor=#ffffff;" parent="9WSpmLzHRRsmoLOSvqGu-1" vertex="1">
                    <mxGeometry x="720" y="520" width="200" height="240" as="geometry"/>
                </mxCell>
                <mxCell id="11" value="func: new_clip" style="rounded=1;whiteSpace=wrap;html=1;fontFamily=Inter;fontSource=https%3A%2F%2Ffonts.googleapis.com%2Fcss%3Ffamily%3DInter;fillColor=#ffe6cc;strokeColor=#d79b00;" parent="10" vertex="1">
                    <mxGeometry x="20" y="82.5" width="160" height="30" as="geometry"/>
                </mxCell>
                <mxCell id="SwcRo_79waH0NxTdfLfB-24" value="func: remove_clip" style="rounded=1;whiteSpace=wrap;html=1;fontFamily=Inter;fontSource=https%3A%2F%2Ffonts.googleapis.com%2Fcss%3Ffamily%3DInter;fillColor=#ffe6cc;strokeColor=#d79b00;" parent="10" vertex="1">
                    <mxGeometry x="20" y="127.5" width="160" height="30" as="geometry"/>
                </mxCell>
                <mxCell id="SwcRo_79waH0NxTdfLfB-29" value="clips_list" style="rounded=1;whiteSpace=wrap;html=1;fillColor=#e1d5e7;strokeColor=#9673a6;arcSize=8;" parent="10" vertex="1">
                    <mxGeometry x="20" y="170" width="160" height="50" as="geometry"/>
                </mxCell>
                <mxCell id="34" value="func: load_clips" style="rounded=1;whiteSpace=wrap;html=1;fontFamily=Inter;fontSource=https%3A%2F%2Ffonts.googleapis.com%2Fcss%3Ffamily%3DInter;fillColor=#ffe6cc;strokeColor=#d79b00;" parent="10" vertex="1">
                    <mxGeometry x="20" y="40" width="160" height="30" as="geometry"/>
                </mxCell>
                <mxCell id="15" value="settings_view" style="swimlane;fillColor=#6a00ff;strokeColor=#3700CC;fontColor=#ffffff;strokeWidth=2;perimeterSpacing=0;rounded=1;fontFamily=Inter;fontSource=https%3A%2F%2Ffonts.googleapis.com%2Fcss%3Ffamily%3DInter;swimlaneFillColor=#ffffff;" parent="9WSpmLzHRRsmoLOSvqGu-1" vertex="1">
                    <mxGeometry x="960" y="520" width="200" height="200" as="geometry"/>
                </mxCell>
                <mxCell id="16" value="app settings" style="rounded=1;whiteSpace=wrap;html=1;fontFamily=Inter;fontSource=https%3A%2F%2Ffonts.googleapis.com%2Fcss%3Ffamily%3DInter;fillColor=#dae8fc;strokeColor=#6c8ebf;" parent="15" vertex="1">
                    <mxGeometry x="20" y="40" width="160" height="30" as="geometry"/>
                </mxCell>
                <mxCell id="18" value="blacklist settings" style="rounded=1;whiteSpace=wrap;html=1;fontFamily=Inter;fontSource=https%3A%2F%2Ffonts.googleapis.com%2Fcss%3Ffamily%3DInter;fillColor=#dae8fc;strokeColor=#6c8ebf;" parent="15" vertex="1">
                    <mxGeometry x="20" y="85" width="160" height="30" as="geometry"/>
                </mxCell>
                <mxCell id="SwcRo_79waH0NxTdfLfB-20" style="edgeStyle=orthogonalEdgeStyle;rounded=1;orthogonalLoop=1;jettySize=auto;html=1;entryX=0;entryY=0.5;entryDx=0;entryDy=0;endArrow=block;endFill=1;startArrow=oval;startFill=1;strokeColor=#FF8000;strokeWidth=2;" parent="9WSpmLzHRRsmoLOSvqGu-1" source="SwcRo_79waH0NxTdfLfB-18" target="SwcRo_79waH0NxTdfLfB-19" edge="1">
                    <mxGeometry relative="1" as="geometry"/>
                </mxCell>
                <mxCell id="SwcRo_79waH0NxTdfLfB-21" style="edgeStyle=orthogonalEdgeStyle;rounded=1;orthogonalLoop=1;jettySize=auto;html=1;entryX=0;entryY=0.5;entryDx=0;entryDy=0;startArrow=oval;startFill=1;endArrow=block;endFill=1;strokeColor=#FF8000;strokeWidth=2;" parent="9WSpmLzHRRsmoLOSvqGu-1" source="SwcRo_79waH0NxTdfLfB-19" target="34" edge="1">
                    <mxGeometry relative="1" as="geometry">
                        <Array as="points">
                            <mxPoint x="680" y="335"/>
                            <mxPoint x="680" y="575"/>
                        </Array>
                    </mxGeometry>
                </mxCell>
                <mxCell id="SwcRo_79waH0NxTdfLfB-25" style="edgeStyle=orthogonalEdgeStyle;rounded=1;orthogonalLoop=1;jettySize=auto;html=1;entryX=1;entryY=0.5;entryDx=0;entryDy=0;startArrow=oval;startFill=1;endArrow=block;endFill=1;strokeColor=#FF8000;strokeWidth=2;exitX=0;exitY=0.5;exitDx=0;exitDy=0;" parent="9WSpmLzHRRsmoLOSvqGu-1" source="SwcRo_79waH0NxTdfLfB-24" target="SwcRo_79waH0NxTdfLfB-19" edge="1">
                    <mxGeometry relative="1" as="geometry">
                        <Array as="points">
                            <mxPoint x="640" y="663"/>
                            <mxPoint x="640" y="335"/>
                        </Array>
                    </mxGeometry>
                </mxCell>
                <mxCell id="SwcRo_79waH0NxTdfLfB-30" style="edgeStyle=elbowEdgeStyle;rounded=1;orthogonalLoop=1;jettySize=auto;html=1;entryX=1;entryY=0.5;entryDx=0;entryDy=0;startArrow=oval;startFill=1;endArrow=block;endFill=1;strokeColor=#FF8000;strokeWidth=2;exitX=0;exitY=0.5;exitDx=0;exitDy=0;" parent="9WSpmLzHRRsmoLOSvqGu-1" source="SwcRo_79waH0NxTdfLfB-29" target="SwcRo_79waH0NxTdfLfB-28" edge="1">
                    <mxGeometry relative="1" as="geometry">
                        <Array as="points">
                            <mxPoint x="600" y="660"/>
                        </Array>
                    </mxGeometry>
                </mxCell>
                <mxCell id="SwcRo_79waH0NxTdfLfB-35" value="main_window" style="swimlane;fillColor=#6a00ff;strokeColor=#3700CC;fontColor=#ffffff;strokeWidth=2;perimeterSpacing=0;rounded=1;fontFamily=Inter;fontSource=https%3A%2F%2Ffonts.googleapis.com%2Fcss%3Ffamily%3DInter;swimlaneFillColor=#ffffff;startSize=23;" parent="9WSpmLzHRRsmoLOSvqGu-1" vertex="1">
                    <mxGeometry x="960" y="280" width="200" height="200" as="geometry"/>
                </mxCell>
                <mxCell id="21" value="func: on_view_visible" style="rounded=1;whiteSpace=wrap;html=1;fontFamily=Inter;fontSource=https%3A%2F%2Ffonts.googleapis.com%2Fcss%3Ffamily%3DInter;fillColor=#ffe6cc;strokeColor=#d79b00;" parent="SwcRo_79waH0NxTdfLfB-35" vertex="1">
                    <mxGeometry x="20" y="40" width="160" height="30" as="geometry"/>
                </mxCell>
                <mxCell id="SwcRo_79waH0NxTdfLfB-44" style="edgeStyle=orthogonalEdgeStyle;rounded=1;orthogonalLoop=1;jettySize=auto;html=1;entryX=1;entryY=0.5;entryDx=0;entryDy=0;startArrow=oval;startFill=1;endArrow=block;endFill=1;strokeColor=#FF8000;strokeWidth=2;" parent="9WSpmLzHRRsmoLOSvqGu-1" source="SwcRo_79waH0NxTdfLfB-34" target="SwcRo_79waH0NxTdfLfB-35" edge="1">
                    <mxGeometry relative="1" as="geometry"/>
                </mxCell>
                <mxCell id="I3_1XdQ8ubKdgtrI8XkN-18" value="searchbar" style="swimlane;fillColor=#6a00ff;strokeColor=#3700CC;fontColor=#ffffff;strokeWidth=2;rounded=1;shadow=0;sketch=0;glass=0;fontFamily=Inter;fontSource=https%3A%2F%2Ffonts.googleapis.com%2Fcss%3Ffamily%3DInter;swimlaneFillColor=#ffffff;" parent="9WSpmLzHRRsmoLOSvqGu-1" vertex="1">
                    <mxGeometry x="720" y="800" width="200" height="200" as="geometry"/>
                </mxCell>
                <mxCell id="22" style="edgeStyle=orthogonalEdgeStyle;rounded=1;orthogonalLoop=1;jettySize=auto;html=1;entryX=0.5;entryY=0;entryDx=0;entryDy=0;startArrow=oval;startFill=1;endArrow=block;endFill=1;strokeColor=#FF8000;strokeWidth=2;exitX=0.5;exitY=1;exitDx=0;exitDy=0;" parent="9WSpmLzHRRsmoLOSvqGu-1" source="21" target="10" edge="1">
                    <mxGeometry relative="1" as="geometry">
                        <mxPoint x="530" y="390" as="sourcePoint"/>
                        <mxPoint x="850" y="650" as="targetPoint"/>
                    </mxGeometry>
                </mxCell>
                <mxCell id="23" style="edgeStyle=orthogonalEdgeStyle;rounded=1;orthogonalLoop=1;jettySize=auto;html=1;entryX=0.5;entryY=0;entryDx=0;entryDy=0;startArrow=oval;startFill=1;endArrow=block;endFill=1;strokeColor=#FF8000;strokeWidth=2;exitX=0.5;exitY=1;exitDx=0;exitDy=0;" parent="9WSpmLzHRRsmoLOSvqGu-1" source="21" target="15" edge="1">
                    <mxGeometry relative="1" as="geometry">
                        <mxPoint x="1070" y="360" as="sourcePoint"/>
                        <mxPoint x="950" y="530" as="targetPoint"/>
                    </mxGeometry>
                </mxCell>
                <mxCell id="24" value="info_view" style="swimlane;fillColor=#6a00ff;strokeColor=#3700CC;fontColor=#ffffff;strokeWidth=2;perimeterSpacing=0;rounded=1;fontFamily=Inter;fontSource=https%3A%2F%2Ffonts.googleapis.com%2Fcss%3Ffamily%3DInter;swimlaneFillColor=#ffffff;" parent="9WSpmLzHRRsmoLOSvqGu-1" vertex="1">
                    <mxGeometry x="1200" y="520" width="200" height="200" as="geometry"/>
                </mxCell>
                <mxCell id="27" style="edgeStyle=orthogonalEdgeStyle;rounded=1;orthogonalLoop=1;jettySize=auto;html=1;entryX=0.5;entryY=0;entryDx=0;entryDy=0;strokeColor=#FF8000;strokeWidth=2;endFill=1;endArrow=block;startFill=1;startArrow=oval;exitX=0.5;exitY=1;exitDx=0;exitDy=0;" parent="9WSpmLzHRRsmoLOSvqGu-1" source="21" target="24" edge="1">
                    <mxGeometry relative="1" as="geometry"/>
                </mxCell>
                <mxCell id="36" style="edgeStyle=orthogonalEdgeStyle;rounded=1;orthogonalLoop=1;jettySize=auto;html=1;entryX=0;entryY=0.5;entryDx=0;entryDy=0;strokeColor=#FF8000;strokeWidth=2;endFill=1;endArrow=block;startFill=1;startArrow=oval;" parent="9WSpmLzHRRsmoLOSvqGu-1" source="SwcRo_79waH0NxTdfLfB-19" target="11" edge="1">
                    <mxGeometry relative="1" as="geometry">
                        <mxPoint x="590" y="400" as="targetPoint"/>
                        <Array as="points">
                            <mxPoint x="680" y="335"/>
                            <mxPoint x="680" y="617"/>
                        </Array>
                    </mxGeometry>
                </mxCell>
            </root>
        </mxGraphModel>
    </diagram>
    <diagram name="ui" id="U3bnbThII9YhZE0fmyeJ">
        <mxGraphModel dx="1838" dy="819" grid="1" gridSize="10" guides="1" tooltips="1" connect="1" arrows="1" fold="1" page="1" pageScale="1" pageWidth="1654" pageHeight="1169" math="0" shadow="1">
            <root>
                <mxCell id="IrCPyjXqcjIIefbZYKyj-0"/>
                <mxCell id="IrCPyjXqcjIIefbZYKyj-1" parent="IrCPyjXqcjIIefbZYKyj-0"/>
                <mxCell id="Ghl2NQ6TUPHqSNO9Oq-B-2" value="" style="rounded=0;whiteSpace=wrap;html=1;" vertex="1" parent="IrCPyjXqcjIIefbZYKyj-1">
                    <mxGeometry x="310" y="130" width="400" height="480" as="geometry"/>
                </mxCell>
                <mxCell id="Ghl2NQ6TUPHqSNO9Oq-B-3" value="" style="rounded=0;whiteSpace=wrap;html=1;" vertex="1" parent="IrCPyjXqcjIIefbZYKyj-1">
                    <mxGeometry x="320" y="140" width="380" height="460" as="geometry"/>
                </mxCell>
                <mxCell id="Ghl2NQ6TUPHqSNO9Oq-B-4" value="" style="whiteSpace=wrap;html=1;aspect=fixed;" vertex="1" parent="IrCPyjXqcjIIefbZYKyj-1">
                    <mxGeometry x="340" y="160" width="100" height="100" as="geometry"/>
                </mxCell>
                <mxCell id="Ghl2NQ6TUPHqSNO9Oq-B-5" value="" style="whiteSpace=wrap;html=1;aspect=fixed;" vertex="1" parent="IrCPyjXqcjIIefbZYKyj-1">
                    <mxGeometry x="450" y="160" width="100" height="100" as="geometry"/>
                </mxCell>
                <mxCell id="Ghl2NQ6TUPHqSNO9Oq-B-6" value="" style="whiteSpace=wrap;html=1;aspect=fixed;" vertex="1" parent="IrCPyjXqcjIIefbZYKyj-1">
                    <mxGeometry x="560" y="160" width="100" height="100" as="geometry"/>
                </mxCell>
            </root>
        </mxGraphModel>
    </diagram>
</mxfile>